<mxfile host="app.diagrams.net" agent="Mozilla/5.0 (Windows NT 10.0; Win64; x64) AppleWebKit/537.36 (KHTML, like Gecko) Chrome/136.0.0.0 Safari/537.36" version="27.0.9">
  <diagram name="Page-1" id="PJbuFFoZruMY_ao4Fxjk">
    <mxGraphModel dx="1042" dy="604" grid="1" gridSize="10" guides="1" tooltips="1" connect="1" arrows="1" fold="1" page="1" pageScale="1" pageWidth="827" pageHeight="1169" math="0" shadow="0">
      <root>
        <mxCell id="0" />
        <mxCell id="1" parent="0" />
        <mxCell id="rgeEg4AUocNl3KcDJLdG-5" value="E - Learning Platform" style="swimlane;whiteSpace=wrap;html=1;" vertex="1" parent="1">
          <mxGeometry x="170" y="30" width="550" height="860" as="geometry" />
        </mxCell>
        <mxCell id="rgeEg4AUocNl3KcDJLdG-8" value="Sign up" style="ellipse;whiteSpace=wrap;html=1;" vertex="1" parent="rgeEg4AUocNl3KcDJLdG-5">
          <mxGeometry x="210" y="50" width="90" height="40" as="geometry" />
        </mxCell>
        <mxCell id="rgeEg4AUocNl3KcDJLdG-9" value="Login" style="ellipse;whiteSpace=wrap;html=1;" vertex="1" parent="rgeEg4AUocNl3KcDJLdG-5">
          <mxGeometry x="230" y="200" width="90" height="50" as="geometry" />
        </mxCell>
        <mxCell id="rgeEg4AUocNl3KcDJLdG-15" value="View Course Details" style="ellipse;whiteSpace=wrap;html=1;" vertex="1" parent="rgeEg4AUocNl3KcDJLdG-5">
          <mxGeometry x="210" y="280" width="120" height="40" as="geometry" />
        </mxCell>
        <mxCell id="rgeEg4AUocNl3KcDJLdG-17" value="Browse Courses" style="ellipse;whiteSpace=wrap;html=1;" vertex="1" parent="rgeEg4AUocNl3KcDJLdG-5">
          <mxGeometry x="210" y="330" width="120" height="40" as="geometry" />
        </mxCell>
        <mxCell id="rgeEg4AUocNl3KcDJLdG-18" value="Select Language preference&amp;nbsp;" style="ellipse;whiteSpace=wrap;html=1;" vertex="1" parent="rgeEg4AUocNl3KcDJLdG-5">
          <mxGeometry x="180" y="110" width="120" height="60" as="geometry" />
        </mxCell>
        <mxCell id="rgeEg4AUocNl3KcDJLdG-23" value="" style="endArrow=none;html=1;rounded=0;entryX=0;entryY=0.5;entryDx=0;entryDy=0;exitX=0;exitY=0.5;exitDx=0;exitDy=0;" edge="1" parent="rgeEg4AUocNl3KcDJLdG-5" source="rgeEg4AUocNl3KcDJLdG-18" target="rgeEg4AUocNl3KcDJLdG-8">
          <mxGeometry width="50" height="50" relative="1" as="geometry">
            <mxPoint x="170" y="140" as="sourcePoint" />
            <mxPoint x="320" y="290" as="targetPoint" />
            <Array as="points">
              <mxPoint x="-80" y="140" />
            </Array>
          </mxGeometry>
        </mxCell>
        <mxCell id="rgeEg4AUocNl3KcDJLdG-27" value="View Instructor" style="ellipse;whiteSpace=wrap;html=1;" vertex="1" parent="rgeEg4AUocNl3KcDJLdG-5">
          <mxGeometry x="195" y="390" width="120" height="50" as="geometry" />
        </mxCell>
        <mxCell id="rgeEg4AUocNl3KcDJLdG-28" value="Read Reviews" style="ellipse;whiteSpace=wrap;html=1;" vertex="1" parent="rgeEg4AUocNl3KcDJLdG-5">
          <mxGeometry x="200" y="450" width="120" height="40" as="geometry" />
        </mxCell>
        <mxCell id="rgeEg4AUocNl3KcDJLdG-32" value="" style="ellipse;whiteSpace=wrap;html=1;" vertex="1" parent="rgeEg4AUocNl3KcDJLdG-5">
          <mxGeometry x="130" y="505" width="120" height="50" as="geometry" />
        </mxCell>
        <mxCell id="rgeEg4AUocNl3KcDJLdG-6" value="User" style="shape=umlActor;verticalLabelPosition=bottom;verticalAlign=top;html=1;outlineConnect=0;" vertex="1" parent="1">
          <mxGeometry x="70" y="140" width="30" height="60" as="geometry" />
        </mxCell>
        <mxCell id="rgeEg4AUocNl3KcDJLdG-20" value="Visitor" style="shape=umlActor;verticalLabelPosition=bottom;verticalAlign=top;html=1;outlineConnect=0;" vertex="1" parent="1">
          <mxGeometry x="60" y="440" width="30" height="60" as="geometry" />
        </mxCell>
        <mxCell id="rgeEg4AUocNl3KcDJLdG-24" value="" style="endArrow=none;html=1;rounded=0;exitX=0.5;exitY=0.5;exitDx=0;exitDy=0;exitPerimeter=0;entryX=0;entryY=0.5;entryDx=0;entryDy=0;" edge="1" parent="1" source="rgeEg4AUocNl3KcDJLdG-6" target="rgeEg4AUocNl3KcDJLdG-9">
          <mxGeometry width="50" height="50" relative="1" as="geometry">
            <mxPoint x="440" y="370" as="sourcePoint" />
            <mxPoint x="490" y="320" as="targetPoint" />
          </mxGeometry>
        </mxCell>
        <mxCell id="rgeEg4AUocNl3KcDJLdG-25" value="" style="endArrow=none;html=1;rounded=0;entryX=0;entryY=0.5;entryDx=0;entryDy=0;" edge="1" parent="1" target="rgeEg4AUocNl3KcDJLdG-15">
          <mxGeometry width="50" height="50" relative="1" as="geometry">
            <mxPoint x="90" y="170" as="sourcePoint" />
            <mxPoint x="490" y="320" as="targetPoint" />
          </mxGeometry>
        </mxCell>
        <mxCell id="rgeEg4AUocNl3KcDJLdG-26" value="" style="endArrow=none;html=1;rounded=0;entryX=0;entryY=0.5;entryDx=0;entryDy=0;" edge="1" parent="1" target="rgeEg4AUocNl3KcDJLdG-17">
          <mxGeometry width="50" height="50" relative="1" as="geometry">
            <mxPoint x="90" y="470" as="sourcePoint" />
            <mxPoint x="490" y="320" as="targetPoint" />
            <Array as="points">
              <mxPoint x="260" y="390" />
            </Array>
          </mxGeometry>
        </mxCell>
        <mxCell id="rgeEg4AUocNl3KcDJLdG-29" value="" style="endArrow=none;html=1;rounded=0;entryX=0;entryY=0.5;entryDx=0;entryDy=0;" edge="1" parent="1" target="rgeEg4AUocNl3KcDJLdG-27">
          <mxGeometry width="50" height="50" relative="1" as="geometry">
            <mxPoint x="90" y="470" as="sourcePoint" />
            <mxPoint x="490" y="320" as="targetPoint" />
          </mxGeometry>
        </mxCell>
        <mxCell id="rgeEg4AUocNl3KcDJLdG-30" value="" style="endArrow=none;html=1;rounded=0;entryX=0;entryY=0.5;entryDx=0;entryDy=0;" edge="1" parent="1" target="rgeEg4AUocNl3KcDJLdG-28">
          <mxGeometry width="50" height="50" relative="1" as="geometry">
            <mxPoint x="90" y="470" as="sourcePoint" />
            <mxPoint x="490" y="320" as="targetPoint" />
          </mxGeometry>
        </mxCell>
        <mxCell id="rgeEg4AUocNl3KcDJLdG-31" value="Students" style="shape=umlActor;verticalLabelPosition=bottom;verticalAlign=top;html=1;outlineConnect=0;" vertex="1" parent="1">
          <mxGeometry x="60" y="770" width="30" height="60" as="geometry" />
        </mxCell>
        <mxCell id="rgeEg4AUocNl3KcDJLdG-33" value="" style="endArrow=none;html=1;rounded=0;entryX=0;entryY=0.5;entryDx=0;entryDy=0;curved=1;" edge="1" parent="1" source="rgeEg4AUocNl3KcDJLdG-31" target="rgeEg4AUocNl3KcDJLdG-8">
          <mxGeometry width="50" height="50" relative="1" as="geometry">
            <mxPoint x="460" y="610" as="sourcePoint" />
            <mxPoint x="510" y="560" as="targetPoint" />
            <Array as="points">
              <mxPoint x="150" y="390" />
            </Array>
          </mxGeometry>
        </mxCell>
      </root>
    </mxGraphModel>
  </diagram>
</mxfile>
